# xmcd
#
# Track frame offsets:
#	150
#	14407
#	32695
#	54597
#	82470
#	99997
#	119720
#
# Disc length: 1811 seconds
#
# Revision: 5
# Processed by: cddbd v1.5.1PL2 Copyright (c) Steve Scherf et al.
# Submitted via: audiograbber 1.83.01
#
DISCID=5c071107
DTITLE=The Hustlers - Succour For Suckers
DYEAR=2005
DGENRE=Blues
TTITLE0=Dr. Thrill
TTITLE1=You're In A Mess
TTITLE2=The Game
TTITLE3=New Song in B Minor
TTITLE4=Reach Out (And Come Inside)
TTITLE5=Something For The Weekend
TTITLE6=Why Do I Don't?
EXTD=YEAR: 2005
EXTT0=
EXTT1=
EXTT2=
EXTT3=
EXTT4=
EXTT5=
EXTT6=
PLAYORDER=
